<svg width="24" height="24" viewBox="0 0 24 24" fill="none" xmlns="http://www.w3.org/2000/svg">
<path d="M21.75 2.625H21V1.875C21 1.47718 20.842 1.09564 20.5607 0.81434C20.2794 0.533035 19.8978 0.375 19.5 0.375C19.1022 0.375 18.7206 0.533035 18.4393 0.81434C18.158 1.09564 18 1.47718 18 1.875V2.625H17.25V1.875C17.25 1.47718 17.092 1.09564 16.8107 0.81434C16.5294 0.533035 16.1478 0.375 15.75 0.375C15.3522 0.375 14.9706 0.533035 14.6893 0.81434C14.408 1.09564 14.25 1.47718 14.25 1.875V2.625H13.5V1.875C13.5 1.47718 13.342 1.09564 13.0607 0.81434C12.7794 0.533035 12.3978 0.375 12 0.375C11.6022 0.375 11.2206 0.533035 10.9393 0.81434C10.658 1.09564 10.5 1.47718 10.5 1.875V2.625H9.75V1.875C9.75 1.47718 9.59196 1.09564 9.31066 0.81434C9.02936 0.533035 8.64782 0.375 8.25 0.375C7.85218 0.375 7.47064 0.533035 7.18934 0.81434C6.90804 1.09564 6.75 1.47718 6.75 1.875V2.625H6V1.875C6 1.47718 5.84196 1.09564 5.56066 0.81434C5.27936 0.533035 4.89782 0.375 4.5 0.375C4.10218 0.375 3.72064 0.533035 3.43934 0.81434C3.15804 1.09564 3 1.47718 3 1.875V2.625H2.25C1.7529 2.6256 1.27633 2.82333 0.924832 3.17483C0.573331 3.52633 0.375595 4.0029 0.375 4.5V22.5C0.375 22.7984 0.493526 23.0845 0.704505 23.2955C0.915483 23.5065 1.20163 23.625 1.5 23.625H22.5C22.7984 23.625 23.0845 23.5065 23.2955 23.2955C23.5065 23.0845 23.625 22.7984 23.625 22.5V4.5C23.6244 4.0029 23.4267 3.52633 23.0752 3.17483C22.7237 2.82333 22.2471 2.6256 21.75 2.625ZM18.75 1.875C18.75 1.67609 18.829 1.48532 18.9697 1.34467C19.1103 1.20402 19.3011 1.125 19.5 1.125C19.6989 1.125 19.8897 1.20402 20.0303 1.34467C20.171 1.48532 20.25 1.67609 20.25 1.875V3.75C20.25 3.94891 20.171 4.13968 20.0303 4.28033C19.8897 4.42098 19.6989 4.5 19.5 4.5C19.3011 4.5 19.1103 4.42098 18.9697 4.28033C18.829 4.13968 18.75 3.94891 18.75 3.75V1.875ZM15 1.875C15 1.67609 15.079 1.48532 15.2197 1.34467C15.3603 1.20402 15.5511 1.125 15.75 1.125C15.9489 1.125 16.1397 1.20402 16.2803 1.34467C16.421 1.48532 16.5 1.67609 16.5 1.875V3.75C16.5 3.94891 16.421 4.13968 16.2803 4.28033C16.1397 4.42098 15.9489 4.5 15.75 4.5C15.5511 4.5 15.3603 4.42098 15.2197 4.28033C15.079 4.13968 15 3.94891 15 3.75V1.875ZM11.25 1.875C11.25 1.67609 11.329 1.48532 11.4697 1.34467C11.6103 1.20402 11.8011 1.125 12 1.125C12.1989 1.125 12.3897 1.20402 12.5303 1.34467C12.671 1.48532 12.75 1.67609 12.75 1.875V3.75C12.75 3.94891 12.671 4.13968 12.5303 4.28033C12.3897 4.42098 12.1989 4.5 12 4.5C11.8011 4.5 11.6103 4.42098 11.4697 4.28033C11.329 4.13968 11.25 3.94891 11.25 3.75V1.875ZM7.5 1.875C7.5 1.67609 7.57902 1.48532 7.71967 1.34467C7.86032 1.20402 8.05109 1.125 8.25 1.125C8.44891 1.125 8.63968 1.20402 8.78033 1.34467C8.92098 1.48532 9 1.67609 9 1.875V3.75C9 3.94891 8.92098 4.13968 8.78033 4.28033C8.63968 4.42098 8.44891 4.5 8.25 4.5C8.05109 4.5 7.86032 4.42098 7.71967 4.28033C7.57902 4.13968 7.5 3.94891 7.5 3.75V1.875ZM3.75 1.875C3.75 1.67609 3.82902 1.48532 3.96967 1.34467C4.11032 1.20402 4.30109 1.125 4.5 1.125C4.69891 1.125 4.88968 1.20402 5.03033 1.34467C5.17098 1.48532 5.25 1.67609 5.25 1.875V3.75C5.25 3.94891 5.17098 4.13968 5.03033 4.28033C4.88968 4.42098 4.69891 4.5 4.5 4.5C4.30109 4.5 4.11032 4.42098 3.96967 4.28033C3.82902 4.13968 3.75 3.94891 3.75 3.75V1.875ZM2.25 3.375H3V3.75C3 4.14782 3.15804 4.52936 3.43934 4.81066C3.72064 5.09196 4.10218 5.25 4.5 5.25C4.89782 5.25 5.27936 5.09196 5.56066 4.81066C5.84196 4.52936 6 4.14782 6 3.75V3.375H6.75V3.75C6.75 4.14782 6.90804 4.52936 7.18934 4.81066C7.47064 5.09196 7.85218 5.25 8.25 5.25C8.64782 5.25 9.02936 5.09196 9.31066 4.81066C9.59196 4.52936 9.75 4.14782 9.75 3.75V3.375H10.5V3.75C10.5 4.14782 10.658 4.52936 10.9393 4.81066C11.2206 5.09196 11.6022 5.25 12 5.25C12.3978 5.25 12.7794 5.09196 13.0607 4.81066C13.342 4.52936 13.5 4.14782 13.5 3.75V3.375H14.25V3.75C14.25 4.14782 14.408 4.52936 14.6893 4.81066C14.9706 5.09196 15.3522 5.25 15.75 5.25C16.1478 5.25 16.5294 5.09196 16.8107 4.81066C17.092 4.52936 17.25 4.14782 17.25 3.75V3.375H18V3.75C18 4.14782 18.158 4.52936 18.4393 4.81066C18.7206 5.09196 19.1022 5.25 19.5 5.25C19.8978 5.25 20.2794 5.09196 20.5607 4.81066C20.842 4.52936 21 4.14782 21 3.75V3.375H21.75C22.0484 3.375 22.3345 3.49353 22.5455 3.7045C22.7565 3.91548 22.875 4.20163 22.875 4.5V6.75H1.125V4.5C1.125 4.20163 1.24353 3.91548 1.4545 3.7045C1.66548 3.49353 1.95163 3.375 2.25 3.375ZM2.625 7.5H21.375V20.625C21.375 20.7245 21.3355 20.8198 21.2652 20.8902C21.1948 20.9605 21.0995 21 21 21H3C2.90054 21 2.80516 20.9605 2.73484 20.8902C2.66451 20.8198 2.625 20.7245 2.625 20.625V7.5ZM22.5 22.875H1.5C1.40054 22.875 1.30516 22.8355 1.23483 22.7652C1.16451 22.6948 1.125 22.5995 1.125 22.5V7.5H1.875V20.625C1.875 20.9234 1.99353 21.2095 2.2045 21.4205C2.41548 21.6315 2.70163 21.75 3 21.75H21C21.2984 21.75 21.5845 21.6315 21.7955 21.4205C22.0065 21.2095 22.125 20.9234 22.125 20.625V7.5H22.875V22.5C22.875 22.5995 22.8355 22.6948 22.7652 22.7652C22.6948 22.8355 22.5995 22.875 22.5 22.875Z" fill="#C4C4C4"/>
<path d="M4.875 11.25H6.75C6.94891 11.25 7.13968 11.171 7.28033 11.0303C7.42098 10.8897 7.5 10.6989 7.5 10.5V9C7.5 8.80109 7.42098 8.61032 7.28033 8.46967C7.13968 8.32902 6.94891 8.25 6.75 8.25H4.875C4.67609 8.25 4.48532 8.32902 4.34467 8.46967C4.20402 8.61032 4.125 8.80109 4.125 9V10.5C4.125 10.6989 4.20402 10.8897 4.34467 11.0303C4.48532 11.171 4.67609 11.25 4.875 11.25ZM4.875 9H6.75V10.5H4.875V9Z" fill="#C4C4C4"/>
<path d="M9 11.25H10.875C11.0739 11.25 11.2647 11.171 11.4053 11.0303C11.546 10.8897 11.625 10.6989 11.625 10.5V9C11.625 8.80109 11.546 8.61032 11.4053 8.46967C11.2647 8.32902 11.0739 8.25 10.875 8.25H9C8.80109 8.25 8.61032 8.32902 8.46967 8.46967C8.32902 8.61032 8.25 8.80109 8.25 9V10.5C8.25 10.6989 8.32902 10.8897 8.46967 11.0303C8.61032 11.171 8.80109 11.25 9 11.25ZM9 9H10.875V10.5H9V9Z" fill="#C4C4C4"/>
<path d="M13.125 11.25H15C15.1989 11.25 15.3897 11.171 15.5303 11.0303C15.671 10.8897 15.75 10.6989 15.75 10.5V9C15.75 8.80109 15.671 8.61032 15.5303 8.46967C15.3897 8.32902 15.1989 8.25 15 8.25H13.125C12.9261 8.25 12.7353 8.32902 12.5947 8.46967C12.454 8.61032 12.375 8.80109 12.375 9V10.5C12.375 10.6989 12.454 10.8897 12.5947 11.0303C12.7353 11.171 12.9261 11.25 13.125 11.25ZM13.125 9H15V10.5H13.125V9Z" fill="#C4C4C4"/>
<path d="M17.25 11.25H19.125C19.3239 11.25 19.5147 11.171 19.6553 11.0303C19.796 10.8897 19.875 10.6989 19.875 10.5V9C19.875 8.80109 19.796 8.61032 19.6553 8.46967C19.5147 8.32902 19.3239 8.25 19.125 8.25H17.25C17.0511 8.25 16.8603 8.32902 16.7197 8.46967C16.579 8.61032 16.5 8.80109 16.5 9V10.5C16.5 10.6989 16.579 10.8897 16.7197 11.0303C16.8603 11.171 17.0511 11.25 17.25 11.25ZM17.25 9H19.125V10.5H17.25V9Z" fill="#C4C4C4"/>
<path d="M4.875 15H6.75C6.94891 15 7.13968 14.921 7.28033 14.7803C7.42098 14.6397 7.5 14.4489 7.5 14.25V12.75C7.5 12.5511 7.42098 12.3603 7.28033 12.2197C7.13968 12.079 6.94891 12 6.75 12H4.875C4.67609 12 4.48532 12.079 4.34467 12.2197C4.20402 12.3603 4.125 12.5511 4.125 12.75V14.25C4.125 14.4489 4.20402 14.6397 4.34467 14.7803C4.48532 14.921 4.67609 15 4.875 15ZM4.875 12.75H6.75V14.25H4.875V12.75Z" fill="#C4C4C4"/>
<path d="M9 15H10.875C11.0739 15 11.2647 14.921 11.4053 14.7803C11.546 14.6397 11.625 14.4489 11.625 14.25V12.75C11.625 12.5511 11.546 12.3603 11.4053 12.2197C11.2647 12.079 11.0739 12 10.875 12H9C8.80109 12 8.61032 12.079 8.46967 12.2197C8.32902 12.3603 8.25 12.5511 8.25 12.75V14.25C8.25 14.4489 8.32902 14.6397 8.46967 14.7803C8.61032 14.921 8.80109 15 9 15ZM9 12.75H10.875V14.25H9V12.75Z" fill="#C4C4C4"/>
<path d="M13.125 15H15C15.1989 15 15.3897 14.921 15.5303 14.7803C15.671 14.6397 15.75 14.4489 15.75 14.25V12.75C15.75 12.5511 15.671 12.3603 15.5303 12.2197C15.3897 12.079 15.1989 12 15 12H13.125C12.9261 12 12.7353 12.079 12.5947 12.2197C12.454 12.3603 12.375 12.5511 12.375 12.75V14.25C12.375 14.4489 12.454 14.6397 12.5947 14.7803C12.7353 14.921 12.9261 15 13.125 15ZM13.125 12.75H15V14.25H13.125V12.75Z" fill="#C4C4C4"/>
<path d="M17.25 15H19.125C19.3239 15 19.5147 14.921 19.6553 14.7803C19.796 14.6397 19.875 14.4489 19.875 14.25V12.75C19.875 12.5511 19.796 12.3603 19.6553 12.2197C19.5147 12.079 19.3239 12 19.125 12H17.25C17.0511 12 16.8603 12.079 16.7197 12.2197C16.579 12.3603 16.5 12.5511 16.5 12.75V14.25C16.5 14.4489 16.579 14.6397 16.7197 14.7803C16.8603 14.921 17.0511 15 17.25 15ZM17.25 12.75H19.125V14.25H17.25V12.75Z" fill="#C4C4C4"/>
<path d="M4.875 18.75H6.75C6.94891 18.75 7.13968 18.671 7.28033 18.5303C7.42098 18.3897 7.5 18.1989 7.5 18V16.5C7.5 16.3011 7.42098 16.1103 7.28033 15.9697C7.13968 15.829 6.94891 15.75 6.75 15.75H4.875C4.67609 15.75 4.48532 15.829 4.34467 15.9697C4.20402 16.1103 4.125 16.3011 4.125 16.5V18C4.125 18.1989 4.20402 18.3897 4.34467 18.5303C4.48532 18.671 4.67609 18.75 4.875 18.75ZM4.875 16.5H6.75V18H4.875V16.5Z" fill="#C4C4C4"/>
<path d="M9 18.75H10.875C11.0739 18.75 11.2647 18.671 11.4053 18.5303C11.546 18.3897 11.625 18.1989 11.625 18V16.5C11.625 16.3011 11.546 16.1103 11.4053 15.9697C11.2647 15.829 11.0739 15.75 10.875 15.75H9C8.80109 15.75 8.61032 15.829 8.46967 15.9697C8.32902 16.1103 8.25 16.3011 8.25 16.5V18C8.25 18.1989 8.32902 18.3897 8.46967 18.5303C8.61032 18.671 8.80109 18.75 9 18.75ZM9 16.5H10.875V18H9V16.5Z" fill="#C4C4C4"/>
<path d="M13.5 18.7499H13.5169C13.5689 18.7475 13.6199 18.7343 13.6666 18.7111C13.7133 18.688 13.7546 18.6553 13.788 18.6153L15.663 16.3653L15.087 15.8853L13.4745 17.8199L12.6397 16.9851L12.1095 17.5154L13.2345 18.6404C13.2694 18.6752 13.3108 18.7028 13.3563 18.7216C13.4019 18.7403 13.4507 18.75 13.5 18.7499Z" fill="#C4C4C4"/>
<path d="M17.625 18.7499H17.6419C17.6939 18.7475 17.7449 18.7343 17.7916 18.7111C17.8383 18.688 17.8796 18.6553 17.913 18.6153L19.788 16.3653L19.212 15.8853L17.5995 17.8199L16.7647 16.9851L16.2345 17.5154L17.3595 18.6404C17.3944 18.6752 17.4358 18.7028 17.4813 18.7216C17.5269 18.7403 17.5757 18.75 17.625 18.7499Z" fill="#C4C4C4"/>
</svg>
