<svg width="25" height="25" viewBox="0 0 25 25" fill="none" xmlns="http://www.w3.org/2000/svg">
<path d="M19.7917 10.4431V5.20835C19.7917 4.05937 18.8573 3.125 17.7083 3.125H2.0833C0.934326 3.125 0 4.05933 0 5.20835V15.625C0 16.774 0.934326 17.7083 2.08335 17.7083H13.7638C14.4462 20.1094 16.654 21.875 19.2708 21.875C20.2779 21.875 21.2682 21.61 22.1359 21.108C22.3847 20.9641 22.4701 20.6457 22.3256 20.3964C22.1817 20.1472 21.8628 20.0612 21.6141 20.2067C20.905 20.6167 20.0948 20.8333 19.2708 20.8333C16.6859 20.8333 14.5833 18.7307 14.5833 16.1458C14.5833 13.561 16.686 11.4584 19.2708 11.4584C21.8556 11.4584 23.9583 13.561 23.9583 16.1458V16.6667C23.9583 17.2409 23.4909 17.7083 22.9167 17.7083C22.3424 17.7083 21.875 17.2409 21.875 16.6667V14.5833C21.875 14.2955 21.642 14.0625 21.3542 14.0625C21.2141 14.0625 21.0882 14.1192 20.9947 14.209C20.5343 13.7988 19.9344 13.5417 19.2708 13.5417C17.835 13.5417 16.6667 14.71 16.6667 16.1458C16.6667 17.5816 17.835 18.75 19.2708 18.75C20.047 18.75 20.7372 18.4018 21.2147 17.8612C21.592 18.3972 22.2127 18.75 22.9167 18.75C24.0657 18.75 25 17.8157 25 16.6667V16.1458C25 13.1625 22.7072 10.7074 19.7917 10.4431ZM2.08335 4.16665H17.7083C17.73 4.16665 17.7482 4.17773 17.7696 4.17905L10.3241 10.2905C10.0591 10.4574 9.6751 10.4228 9.50269 10.317L2.02275 4.17896C2.0439 4.17769 2.06187 4.16665 2.08335 4.16665ZM18.75 10.4431C15.8344 10.7074 13.5417 13.1625 13.5417 16.1458C13.5417 16.3216 13.5524 16.4949 13.568 16.6667H2.08335C1.50913 16.6667 1.0417 16.1993 1.0417 15.625V5.20835C1.0417 5.06084 1.07427 4.92153 1.12983 4.79429L8.88779 11.1562C9.19092 11.3541 9.53936 11.4584 9.8959 11.4584C10.2387 11.4584 10.5739 11.3618 10.8689 11.1787C10.8984 11.1629 10.9264 11.1441 10.9528 11.1222L18.6618 4.79419C18.7174 4.92153 18.75 5.06084 18.75 5.2084V10.4431H18.75ZM19.2708 17.7083C18.4092 17.7083 17.7083 17.0075 17.7083 16.1458C17.7083 15.2842 18.4092 14.5833 19.2708 14.5833C20.1325 14.5833 20.8333 15.2842 20.8333 16.1458C20.8333 17.0075 20.1325 17.7083 19.2708 17.7083Z" fill="#C4C4C4"/>
</svg>
