<svg width="25" height="25" viewBox="0 0 25 25" fill="none" xmlns="http://www.w3.org/2000/svg">
<path d="M11.2692 17.3003L10.9407 20.2549C10.9244 20.4019 10.9717 20.5494 11.0704 20.6598C11.169 20.7701 11.3105 20.8332 11.4585 20.8332H13.5418C13.6898 20.8332 13.8312 20.7701 13.9299 20.6598C14.0286 20.5494 14.0759 20.4019 14.0596 20.2549L13.731 17.3003C14.2646 16.9122 14.5835 16.2983 14.5835 15.6249C14.5835 14.4759 13.6491 13.5415 12.5001 13.5415C11.3511 13.5415 10.4167 14.4759 10.4167 15.6249C10.4167 16.2983 10.7357 16.9122 11.2692 17.3003ZM12.5001 14.5832C13.0743 14.5832 13.5418 15.0506 13.5418 15.6249C13.5418 16.0241 13.3149 16.3817 12.9497 16.5587C12.7508 16.6553 12.6344 16.8659 12.6588 17.0851L12.9599 19.7915H12.0403L12.3415 17.0851C12.3659 16.8659 12.2494 16.6553 12.0505 16.5587C11.6854 16.3817 11.4585 16.0241 11.4585 15.6249C11.4585 15.0506 11.9259 14.5832 12.5001 14.5832Z" fill="#C4C4C4"/>
<path d="M21.3542 9.375H19.7917V7.29165C19.7917 3.271 16.5207 0 12.5 0C8.4793 0 5.20835 3.271 5.20835 7.29165V9.375H3.64585C3.35796 9.375 3.125 9.60796 3.125 9.89585V22.9167C3.125 24.0657 4.05933 25 5.20835 25H19.7917C20.9407 25 21.875 24.0657 21.875 22.9167V9.89585C21.875 9.60796 21.642 9.375 21.3542 9.375ZM6.25 7.29165C6.25 3.84521 9.05356 1.04165 12.5 1.04165C15.9464 1.04165 18.75 3.84521 18.75 7.29165V9.375H17.7083V7.29165C17.7083 4.41992 15.3717 2.0833 12.5 2.0833C9.62827 2.0833 7.29165 4.41997 7.29165 7.29165V9.375H6.25V7.29165ZM16.6667 7.29165V9.375H8.33335V7.29165C8.33335 4.99419 10.2025 3.125 12.5 3.125C14.7975 3.125 16.6667 4.99419 16.6667 7.29165ZM20.8333 22.9167C20.8333 23.4909 20.3659 23.9583 19.7917 23.9583H5.20835C4.63413 23.9583 4.1667 23.4909 4.1667 22.9167V10.4166H20.8333V22.9167Z" fill="#C4C4C4"/>
</svg>
